<?xml version="1.0" encoding="UTF-8"?>
<!DOCTYPE svg PUBLIC "-//W3C//DTD SVG 1.1//EN" "http://www.w3.org/Graphics/SVG/1.1/DTD/svg11.dtd">
<!-- Creator: CorelDRAW X5 -->
<svg xmlns="http://www.w3.org/2000/svg" xml:space="preserve" width="570px" height="423px" shape-rendering="geometricPrecision" text-rendering="geometricPrecision" image-rendering="optimizeQuality" fill-rule="evenodd" clip-rule="evenodd"
viewBox="0 0 194838 144511"
 xmlns:xlink="http://www.w3.org/1999/xlink">
 <defs>
    <linearGradient id="id0" gradientUnits="userSpaceOnUse" x1="-0" y1="40255.4" x2="194307" y2="40255.4">
     <stop offset="0" stop-color="#00D3A7"/>
     <stop offset="1" stop-color="#02C0D0"/>
    </linearGradient>
    <linearGradient id="id1" gradientUnits="userSpaceOnUse" x1="-34475.3" y1="93254.6" x2="151944" y2="93254.6">
     <stop offset="0" stop-color="#E91E63"/>
     <stop offset="1" stop-color="#3F51B5"/>
    </linearGradient>
 </defs>
 <g id="Слой_x0020_1">
  <metadata id="CorelCorpID_0Corel-Layer"/>
  <g id="_271425920">
   <path fill="url(#id0)" d="M98818 33251l0 -23480 -11067 0 0 48156c0,1433 -13,2879 -37,4337 -37,1446 -75,2829 -112,4138 -50,1321 -100,2480 -150,3489l9422 0 523 -5758 224 0c1321,2331 2941,4025 4848,5060 1919,1034 4038,1545 6368,1520 1732,0 3427,-299 5072,-885 1658,-586 3203,-1471 4649,-2667 1433,-1184 2704,-2667 3801,-4462 1097,-1782 1957,-3888 2580,-6281 623,-2405 935,-5122 947,-8138 -12,-3116 -374,-5957 -1097,-8512 -735,-2555 -1770,-4761 -3116,-6618 -1346,-1844 -2966,-3278 -4835,-4287 -1882,-997 -3976,-1508 -6281,-1521 -2654,13 -4948,548 -6892,1583 -1932,1034 -3502,2480 -4698,4325l-150 0zm0 11889c13,-1346 224,-2580 636,-3677 411,-1097 972,-2044 1670,-2829 710,-798 1508,-1396 2393,-1820 897,-436 1820,-648 2779,-648 1421,12 2655,336 3714,972 1059,648 1944,1533 2642,2679 698,1147 1221,2480 1570,4013 349,1533 523,3190 523,4973 0,2704 -336,5035 -997,6979 -648,1957 -1608,3452 -2866,4511 -1259,1047 -2792,1583 -4586,1595 -1483,-13 -2779,-411 -3901,-1184 -1122,-773 -1994,-1795 -2617,-3091 -636,-1296 -947,-2729 -960,-4325l0 -8151zm57652 -17572c-361,-75 -735,-137 -1122,-175 -386,-37 -835,-50 -1346,-50 -1321,0 -2642,312 -3976,922 -1334,598 -2555,1508 -3664,2717 -1122,1209 -2006,2717 -2679,4512l-299 0 -449 -7253 -9497 0c75,1857 150,3851 212,5970 50,2131 87,4474 87,7041l0 28639 11067 0 0 -21536c13,-2368 411,-4325 1171,-5870 773,-1545 1820,-2704 3141,-3465 1321,-760 2829,-1134 4511,-1134 561,0 1072,13 1533,50 461,37 897,100 1309,174l0 -10543zm37239 17198c12,-2306 -237,-4487 -748,-6555 -523,-2081 -1396,-3926 -2630,-5546 -1234,-1608 -2916,-2891 -5047,-3814 -2131,-935 -4810,-1421 -8026,-1433 -2169,12 -4175,199 -6019,548 -1832,349 -3465,785 -4885,1321 -1421,536 -2592,1084 -3527,1645l2094 7179c1371,-835 2929,-1520 4698,-2044 1770,-511 3614,-785 5546,-798 1994,13 3539,337 4636,960 1084,636 1832,1496 2256,2580 411,1097 611,2330 586,3714 -3328,0 -6368,312 -9135,947 -2767,636 -5160,1595 -7191,2891 -2031,1296 -3602,2929 -4711,4898 -1122,1969 -1682,4300 -1695,6967 0,1695 299,3290 872,4786 573,1508 1396,2829 2480,3976 1084,1159 2393,2069 3938,2717 1533,660 3265,997 5197,1009 1558,0 3016,-212 4399,-611 1383,-399 2630,-985 3764,-1745 1134,-773 2106,-1707 2904,-2804l224 0 673 4337 9945 0c-150,-860 -262,-1820 -349,-2879 -87,-1059 -150,-2181 -199,-3365 -37,-1196 -50,-2405 -50,-3627l0 -15254zm-10768 10843c-13,1321 -249,2443 -723,3365 -461,910 -1047,1658 -1770,2218 -723,561 -1483,972 -2268,1221 -798,249 -1521,374 -2194,374 -935,0 -1795,-199 -2592,-598 -785,-386 -1421,-1009 -1894,-1844 -486,-847 -735,-1919 -748,-3240 13,-1508 374,-2742 1059,-3726 698,-972 1620,-1732 2792,-2281 1172,-548 2468,-935 3913,-1159 1433,-212 2916,-324 4424,-312l0 5982zm-144984 3161c-746,318 -2297,827 -3288,1072 -990,245 -2054,428 -3180,562 -1125,135 -2250,208 -3387,208 -3412,0 -6371,-758 -8866,-2238 -2495,-1492 -4427,-3693 -5796,-6604 -1357,-2898 -2054,-6494 -2067,-10749 12,-3412 452,-6371 1321,-8890 856,-2519 2054,-4598 3583,-6249 1541,-1639 3314,-2874 5344,-3681 2030,-807 4207,-1211 6555,-1211 1944,12 3656,196 5148,563 1492,355 2776,770 3876,1272l4632 -7211c-538,-306 -3839,-2212 -4889,-2536 -1053,-325 -2360,-599 -3913,-832 -1541,-232 -3338,-342 -5368,-355 -3008,0 -5882,404 -8621,1198 -2751,795 -5271,1981 -7582,3571 -2311,1590 -4317,3583 -6029,5955 -1712,2385 -3045,5161 -3987,8316 -954,3167 -1431,6726 -1443,10676 0,4194 587,8022 1736,11471 1150,3449 2837,6420 5075,8927 2238,2507 4989,4427 8267,5784 3265,1357 7019,2054 11263,2067 1944,-12 3718,-110 5332,-330 1626,-208 3032,-469 4256,-795 1209,-322 4897,-1331 5618,-1686l-3590 -8276z"/>
   <path fill="white" fill-rule="nonzero" d="M122189 99769c-1685,0 -3153,-284 -4401,-843 -1254,-558 -2290,-1340 -3112,-2335 -822,-995 -1437,-2183 -1838,-3553 -401,-1376 -599,-2873 -599,-4498 0,-1685 198,-3213 599,-4574 401,-1366 1015,-2523 1833,-3472 817,-954 1838,-1690 3056,-2208 1218,-523 2655,-782 4310,-782 1244,0 2320,142 3244,431 924,284 1711,670 2371,1142 660,477 1213,1010 1660,1594 447,584 812,1178 1102,1782l-1965 746c-239,-487 -538,-960 -898,-1421 -360,-462 -802,-868 -1325,-1228 -518,-355 -1127,-645 -1812,-863 -690,-218 -1477,-325 -2361,-325 -1315,0 -2452,218 -3406,655 -949,437 -1736,1051 -2355,1853 -619,797 -1076,1762 -1366,2899 -294,1137 -442,2391 -442,3772 0,1376 162,2640 482,3782 325,1147 807,2137 1447,2970 635,833 1442,1477 2406,1939 970,462 2091,690 3371,690 919,0 1746,-132 2482,-401 731,-269 1381,-614 1939,-1046 564,-431 1041,-919 1437,-1452 396,-538 716,-1071 949,-1604l1863 858c-360,685 -797,1360 -1310,2015 -518,660 -1127,1249 -1828,1756 -706,513 -1518,924 -2432,1244 -919,315 -1954,477 -3102,477z"/>
   <path id="1" fill="white" fill-rule="nonzero" d="M154668 88539c0,1685 -234,3219 -695,4599 -467,1386 -1137,2564 -2015,3543 -878,975 -1949,1731 -3208,2274 -1259,538 -2686,812 -4280,812 -1695,0 -3178,-284 -4447,-843 -1269,-558 -2330,-1340 -3183,-2335 -853,-995 -1492,-2183 -1919,-3553 -426,-1376 -640,-2873 -640,-4498 0,-1685 223,-3213 670,-4574 442,-1366 1097,-2523 1960,-3472 863,-954 1929,-1690 3193,-2208 1264,-523 2716,-782 4366,-782 1635,0 3087,264 4356,787 1269,528 2335,1269 3203,2234 868,959 1528,2117 1970,3472 447,1350 670,2868 670,4543zm-2290 0c0,-1381 -168,-2635 -502,-3772 -340,-1137 -843,-2102 -1513,-2899 -670,-802 -1498,-1416 -2482,-1853 -985,-436 -2127,-655 -3411,-655 -1320,0 -2477,218 -3467,655 -990,437 -1817,1051 -2482,1853 -665,797 -1163,1762 -1498,2899 -330,1137 -497,2391 -497,3772 0,1376 173,2640 513,3782 345,1147 853,2137 1523,2970 675,833 1503,1477 2487,1939 980,462 2122,690 3421,690 1366,0 2549,-233 3543,-695 1000,-467 1817,-1117 2462,-1949 645,-833 1122,-1828 1437,-2975 310,-1152 467,-2406 467,-3762z"/>
   <path id="12" fill="white" fill-rule="nonzero" d="M172827 99454l-5889 -9265 -5173 0 0 9265 -2203 0 0 -21626 7676 0c1168,0 2218,142 3142,416 929,279 1711,675 2350,1193 640,513 1132,1147 1472,1894 345,751 513,1604 513,2569 0,670 -107,1340 -320,2000 -213,655 -543,1264 -985,1812 -447,548 -1025,1015 -1726,1396 -706,386 -1548,650 -2528,797l6290 9549 -2619 0zm-355 -15544c0,-701 -122,-1320 -371,-1858 -249,-533 -609,-985 -1086,-1350 -477,-371 -1046,-645 -1711,-827 -665,-183 -1416,-274 -2259,-274l-5280 0 0 8848 5381 0c924,0 1721,-117 2396,-355 675,-239 1223,-558 1650,-959 426,-401 746,-883 959,-1442 213,-564 320,-1152 320,-1782z"/>
   <path id="123" fill="white" fill-rule="nonzero" d="M194838 84225c0,883 -147,1721 -452,2523 -305,797 -756,1498 -1361,2097 -604,599 -1366,1081 -2284,1442 -914,360 -1980,543 -3188,543l-5665 0 0 8625 -2203 0 0 -21626 7676 0c1239,0 2325,157 3254,462 934,310 1716,741 2345,1294 630,553 1102,1229 1411,2015 315,787 467,1665 467,2624zm-2244 15c0,-1467 -457,-2609 -1376,-3421 -919,-812 -2290,-1218 -4112,-1218l-5219 0 0 9473 5335 0c924,0 1721,-122 2396,-365 675,-244 1234,-579 1675,-1015 442,-437 767,-949 980,-1533 213,-584 320,-1223 320,-1919z"/>
   <path fill="url(#id1)" fill-rule="nonzero" d="M65603 118080c-63828,-15245 -27294,33303 0,0zm7049 -44584c-3315,13520 12194,18767 12194,37389 0,90 46180,19906 49385,11770 2684,-6814 -45187,-12178 -47345,-34955 13395,21838 65058,19079 57753,38397 -4507,11918 -25057,11359 -63084,-2986 -56832,64096 -116031,-38283 -14776,-16852 0,-19298 -47130,-56147 -22230,-87555 3050,-3611 6059,-6139 9068,-7544 1434,-8967 14077,-11856 19489,-11023 2341,360 2181,6614 815,10340 19968,22518 6728,30396 -1270,63018z"/>
  </g>
 </g>
</svg>
