<?xml version="1.0" encoding="UTF-8"?>
<!DOCTYPE svg PUBLIC "-//W3C//DTD SVG 1.1//EN" "http://www.w3.org/Graphics/SVG/1.1/DTD/svg11.dtd">
<!-- Creator: CorelDRAW X5 -->
<svg xmlns="http://www.w3.org/2000/svg" xml:space="preserve" width="750px" height="157px" shape-rendering="geometricPrecision" text-rendering="geometricPrecision" image-rendering="optimizeQuality" fill-rule="evenodd" clip-rule="evenodd"
viewBox="0 0 895233 187749"
 xmlns:xlink="http://www.w3.org/1999/xlink">
 <g id="Слой_x0020_1">
  <metadata id="CorelCorpID_0Corel-Layer"/>
  <path fill="white" fill-rule="nonzero" d="M99633 121753c-1858,792 -4022,1493 -6490,2102 -2468,610 -5119,1067 -7922,1402 -2803,335 -5606,518 -8440,518 -8501,0 -15874,-1889 -22090,-5576 -6216,-3717 -11030,-9201 -14442,-16453 -3382,-7221 -5119,-16179 -5149,-26782 30,-8501 1127,-15874 3290,-22151 2133,-6277 5119,-11456 8927,-15570 3839,-4083 8257,-7160 13315,-9171 5058,-2011 10481,-3016 16331,-3016 4844,30 9110,487 12827,1402 3717,884 6916,1920 9659,3169l5302 -21937c-1341,-762 -3321,-1554 -5942,-2346 -2620,-823 -5880,-1493 -9750,-2072 -3839,-579 -8318,-853 -13376,-884 -7495,0 -14655,1005 -21481,2986 -6856,1980 -13132,4936 -18891,8897 -5759,3961 -10755,8927 -15021,14838 -4266,5941 -7587,12858 -9933,20719 -2377,7891 -3565,16758 -3595,26599 0,10451 1462,19988 4327,28580 2864,8592 7069,15996 12644,22242 5576,6246 12431,11030 20597,14412 8135,3382 17489,5119 28062,5149 4844,-30 9262,-274 13284,-823 4052,-518 7556,-1158 10603,-1980 3016,-792 5393,-1615 7190,-2498l-3839 -21755z"/>
  <path id="1" fill="white" fill-rule="nonzero" d="M164166 42961c-6947,0 -13345,1188 -19195,3565 -5850,2346 -10938,5820 -15295,10390 -4327,4570 -7709,10177 -10116,16819 -2407,6642 -3626,14229 -3656,22791 31,8288 1219,15661 3504,22151 2316,6490 5576,11974 9811,16484 4205,4509 9171,7952 14899,10298 5759,2346 12066,3504 18952,3534 4570,0 9110,-610 13650,-1859 4540,-1280 8836,-3230 12888,-5911 4052,-2651 7648,-6094 10786,-10329 3169,-4205 5637,-9262 7434,-15173 1828,-5911 2742,-12736 2773,-20475 -31,-7769 -1097,-14838 -3230,-21206 -2163,-6368 -5241,-11883 -9293,-16514 -4052,-4631 -8927,-8227 -14625,-10755 -5698,-2498 -12127,-3778 -19287,-3809zm19013 52833c0,4570 -426,8836 -1280,12827 -853,3992 -2133,7526 -3778,10603 -1676,3047 -3748,5454 -6185,7190 -2468,1737 -5302,2620 -8501,2651 -3290,-31 -6185,-914 -8684,-2620 -2529,-1737 -4601,-4113 -6307,-7130 -1706,-3047 -2956,-6551 -3839,-10542 -853,-3961 -1280,-8257 -1280,-12797 0,-3138 213,-6277 670,-9415 457,-3138 1158,-6124 2163,-8958 975,-2834 2255,-5332 3839,-7556 1585,-2194 3504,-3931 5759,-5210 2255,-1280 4875,-1920 7861,-1950 3473,30 6429,1005 8927,2895 2468,1889 4510,4418 6063,7587 1585,3169 2742,6703 3474,10573 731,3869 1097,7831 1097,11852z"/>
  <path id="12" fill="white" fill-rule="nonzero" d="M257217 57403l0 -57403 -27056 0 0 117731c0,3504 -31,7038 -92,10603 -91,3534 -183,6916 -274,10116 -122,3230 -244,6063 -366,8531l23034 0 1280 -14077 549 0c3230,5698 7190,9841 11852,12370 4692,2529 9872,3778 15570,3717 4235,0 8379,-731 12401,-2164 4052,-1432 7830,-3595 11365,-6520 3504,-2895 6612,-6520 9293,-10908 2681,-4357 4784,-9506 6307,-15356 1523,-5881 2285,-12523 2316,-19896 -30,-7617 -914,-14564 -2681,-20810 -1798,-6246 -4326,-11639 -7617,-16179 -3291,-4509 -7252,-8013 -11822,-10481 -4601,-2438 -9719,-3687 -15356,-3717 -6490,31 -12096,1341 -16849,3870 -4723,2529 -8562,6063 -11487,10572l-366 0zm0 29067c30,-3290 548,-6307 1554,-8988 1005,-2681 2377,-4997 4083,-6916 1737,-1950 3687,-3413 5850,-4449 2194,-1066 4448,-1584 6794,-1584 3474,31 6490,823 9080,2377 2590,1584 4753,3748 6459,6551 1706,2803 2986,6063 3839,9811 853,3748 1280,7800 1280,12157 0,6612 -823,12309 -2438,17063 -1585,4784 -3931,8440 -7008,11030 -3077,2559 -6825,3869 -11213,3900 -3626,-31 -6794,-1006 -9537,-2895 -2742,-1889 -4875,-4388 -6398,-7556 -1554,-3169 -2316,-6673 -2346,-10573l0 -19927z"/>
  <path id="123" fill="white" fill-rule="nonzero" d="M398166 43510c-884,-183 -1797,-335 -2742,-427 -944,-91 -2041,-122 -3290,-122 -3230,0 -6459,762 -9719,2255 -3260,1462 -6246,3687 -8958,6642 -2742,2956 -4905,6642 -6551,11030l-731 0 -1097 -17733 -23217 0c183,4540 366,9415 518,14595 122,5210 213,10938 213,17215l0 70017 27056 0 0 -52650c30,-5789 1005,-10573 2864,-14351 1889,-3778 4449,-6612 7678,-8470 3230,-1859 6916,-2773 11030,-2773 1371,0 2620,31 3748,122 1128,92 2194,244 3199,427l0 -25776z"/>
  <path id="1234" fill="white" fill-rule="nonzero" d="M489207 85556c30,-5637 -579,-10969 -1828,-16027 -1280,-5088 -3413,-9598 -6429,-13559 -3016,-3931 -7130,-7069 -12340,-9324 -5210,-2285 -11761,-3473 -19622,-3504 -5302,31 -10207,488 -14716,1341 -4479,853 -8470,1920 -11944,3230 -3473,1310 -6338,2651 -8623,4022l5119 17550c3352,-2041 7160,-3717 11487,-4997 4326,-1249 8836,-1920 13559,-1950 4875,31 8653,823 11334,2346 2651,1554 4479,3656 5515,6307 1005,2681 1493,5698 1432,9080 -8135,0 -15570,762 -22334,2316 -6764,1554 -12614,3900 -17580,7069 -4967,3169 -8806,7160 -11517,11974 -2742,4814 -4113,10512 -4144,17032 0,4144 731,8044 2133,11700 1402,3687 3413,6916 6063,9719 2651,2834 5850,5058 9628,6642 3748,1615 7983,2438 12706,2468 3808,0 7373,-518 10755,-1493 3382,-975 6429,-2407 9202,-4266 2772,-1889 5149,-4174 7099,-6856l548 0 1646 10603 24314 0c-366,-2102 -640,-4449 -853,-7038 -213,-2590 -366,-5332 -487,-8227 -92,-2925 -122,-5880 -122,-8866l0 -37294zm-26325 26508c-31,3230 -610,5972 -1767,8227 -1127,2224 -2559,4052 -4326,5423 -1767,1371 -3626,2377 -5545,2986 -1950,609 -3717,914 -5363,914 -2285,0 -4387,-487 -6338,-1462 -1920,-944 -3473,-2468 -4631,-4509 -1188,-2072 -1798,-4692 -1828,-7922 31,-3687 914,-6703 2590,-9110 1706,-2377 3961,-4235 6825,-5576 2864,-1341 6033,-2285 9567,-2834 3504,-518 7130,-792 10816,-762l0 14625z"/>
  <path id="12345" fill="white" fill-rule="nonzero" d="M600722 121753c-1858,792 -4022,1493 -6490,2102 -2468,610 -5119,1067 -7922,1402 -2803,335 -5606,518 -8440,518 -8501,0 -15874,-1889 -22090,-5576 -6216,-3717 -11030,-9201 -14442,-16453 -3382,-7221 -5119,-16179 -5149,-26782 30,-8501 1127,-15874 3290,-22151 2133,-6277 5119,-11456 8927,-15570 3839,-4083 8257,-7160 13315,-9171 5058,-2011 10481,-3016 16331,-3016 4844,30 9110,487 12827,1402 3717,884 6916,1920 9659,3169l5302 -21937c-1341,-762 -3321,-1554 -5942,-2346 -2620,-823 -5880,-1493 -9750,-2072 -3839,-579 -8318,-853 -13376,-884 -7495,0 -14655,1005 -21481,2986 -6856,1980 -13132,4936 -18891,8897 -5759,3961 -10755,8927 -15021,14838 -4266,5941 -7587,12858 -9933,20719 -2377,7891 -3565,16758 -3595,26599 0,10451 1462,19988 4327,28580 2864,8592 7069,15996 12644,22242 5576,6246 12431,11030 20597,14412 8135,3382 17489,5119 28062,5149 4844,-30 9262,-274 13284,-823 4052,-518 7556,-1158 10603,-1980 3016,-792 5393,-1615 7190,-2498l-3839 -21755z"/>
  <path id="123456" fill="white" fill-rule="nonzero" d="M665255 42961c-6947,0 -13345,1188 -19195,3565 -5850,2346 -10938,5820 -15295,10390 -4327,4570 -7709,10177 -10116,16819 -2407,6642 -3626,14229 -3656,22791 31,8288 1219,15661 3504,22151 2316,6490 5576,11974 9811,16484 4205,4509 9171,7952 14899,10298 5759,2346 12066,3504 18952,3534 4570,0 9110,-610 13650,-1859 4540,-1280 8836,-3230 12888,-5911 4052,-2651 7648,-6094 10786,-10329 3169,-4205 5637,-9262 7434,-15173 1828,-5911 2742,-12736 2773,-20475 -31,-7769 -1097,-14838 -3230,-21206 -2163,-6368 -5241,-11883 -9293,-16514 -4052,-4631 -8927,-8227 -14625,-10755 -5698,-2498 -12127,-3778 -19287,-3809zm19013 52833c0,4570 -426,8836 -1280,12827 -853,3992 -2133,7526 -3778,10603 -1676,3047 -3748,5454 -6185,7190 -2468,1737 -5302,2620 -8501,2651 -3290,-31 -6185,-914 -8684,-2620 -2529,-1737 -4601,-4113 -6307,-7130 -1706,-3047 -2956,-6551 -3839,-10542 -853,-3961 -1280,-8257 -1280,-12797 0,-3138 213,-6277 670,-9415 457,-3138 1158,-6124 2163,-8958 975,-2834 2255,-5332 3839,-7556 1585,-2194 3504,-3931 5759,-5210 2255,-1280 4875,-1920 7861,-1950 3473,30 6429,1005 8927,2895 2468,1889 4510,4418 6063,7587 1585,3169 2742,6703 3474,10573 731,3869 1097,7831 1097,11852z"/>
  <path id="1234567" fill="white" fill-rule="nonzero" d="M786825 43510c-884,-183 -1797,-335 -2742,-427 -944,-91 -2041,-122 -3290,-122 -3230,0 -6459,762 -9719,2255 -3260,1462 -6246,3687 -8958,6642 -2742,2956 -4905,6642 -6551,11030l-731 0 -1097 -17733 -23217 0c183,4540 366,9415 518,14595 122,5210 213,10938 213,17215l0 70017 27056 0 0 -52650c30,-5789 1005,-10573 2864,-14351 1889,-3778 4449,-6612 7678,-8470 3230,-1859 6916,-2773 11030,-2773 1371,0 2620,31 3748,122 1128,92 2194,244 3199,427l0 -25776z"/>
  <path id="12345678" fill="white" fill-rule="nonzero" d="M825948 59049l-1280 -13894 -23583 0c183,4631 366,9719 518,15204 122,5485 213,11517 213,18068l0 109322 27056 0 0 -50639 366 0c1462,2285 3382,4296 5728,6094 2346,1767 5058,3169 8166,4205 3108,1036 6520,1554 10237,1585 4174,0 8257,-670 12279,-2011 4052,-1341 7831,-3413 11395,-6185 3534,-2773 6673,-6277 9415,-10573 2712,-4266 4845,-9324 6398,-15173 1554,-5820 2346,-12492 2377,-19988 -30,-7831 -1005,-14960 -2925,-21328 -1920,-6368 -4601,-11852 -8074,-16453 -3504,-4570 -7587,-8105 -12279,-10572 -4723,-2468 -9872,-3717 -15478,-3748 -6612,31 -12462,1402 -17550,4144 -5088,2742 -9293,6703 -12614,11944l-366 0zm2925 27788c30,-4144 884,-7861 2529,-11182 1646,-3321 3839,-5972 6642,-7922 2803,-1980 5972,-2986 9476,-3016 3351,31 6277,792 8805,2346 2529,1523 4631,3687 6338,6490 1706,2803 2986,6094 3870,9902 853,3809 1280,7983 1280,12523 0,4601 -427,8805 -1310,12675 -884,3869 -2224,7221 -3961,10085 -1767,2864 -3931,5088 -6520,6642 -2590,1585 -5606,2377 -9049,2407 -2316,0 -4540,-457 -6673,-1341 -2163,-914 -4083,-2255 -5820,-4083 -1706,-1798 -3047,-4083 -4052,-6825 -1006,-2772 -1524,-6002 -1554,-9689l0 -19013z"/>
 </g>
</svg>
