<?xml version="1.0" encoding="UTF-8"?>
<!DOCTYPE svg PUBLIC "-//W3C//DTD SVG 1.1//EN" "http://www.w3.org/Graphics/SVG/1.1/DTD/svg11.dtd">
<!-- Creator: CorelDRAW X5 -->
<svg xmlns="http://www.w3.org/2000/svg" xml:space="preserve" width="571px" height="424px" shape-rendering="geometricPrecision" text-rendering="geometricPrecision" image-rendering="optimizeQuality" fill-rule="evenodd" clip-rule="evenodd"
viewBox="0 0 195315 145024"
 xmlns:xlink="http://www.w3.org/1999/xlink">
 <defs>
   <linearGradient id="id0" gradientUnits="userSpaceOnUse" x1="-0" y1="40458.1" x2="194648" y2="40458.1">
    <stop offset="0" stop-color="#00D3A7"/>
    <stop offset="1" stop-color="#02C0D0"/>
   </linearGradient>
   <linearGradient id="id1" gradientUnits="userSpaceOnUse" x1="-34535.8" y1="93550.4" x2="152211" y2="93550.4">
    <stop offset="0" stop-color="#E91E63"/>
    <stop offset="1" stop-color="#3F51B5"/>
   </linearGradient>
 </defs>
 <g id="Слой_x0020_1">
  <metadata id="CorelCorpID_0Corel-Layer"/>
  <path fill="url(#id0)" stroke="white" stroke-width="342.138" d="M98991 33442l0 -23521 -11086 0 0 48240c0,1436 -13,2884 -37,4344 -37,1448 -75,2834 -112,4145 -50,1323 -100,2484 -150,3496l9438 0 524 -5768 225 0c1323,2335 2946,4033 4857,5069 1923,1036 4045,1548 6380,1523 1735,0 3433,-300 5081,-886 1660,-587 3209,-1473 4657,-2672 1436,-1186 2709,-2672 3808,-4469 1099,-1785 1960,-3895 2584,-6292 624,-2410 936,-5131 949,-8152 -12,-3121 -374,-5968 -1099,-8527 -737,-2559 -1773,-4769 -3121,-6629 -1348,-1848 -2971,-3283 -4844,-4295 -1885,-999 -3983,-1511 -6292,-1523 -2659,13 -4956,549 -6904,1586 -1935,1036 -3508,2484 -4707,4332l-150 0zm0 11910c13,-1348 225,-2584 637,-3683 412,-1099 974,-2047 1673,-2834 712,-799 1511,-1398 2397,-1823 899,-437 1823,-649 2784,-649 1423,12 2659,337 3720,974 1061,649 1948,1536 2647,2684 699,1149 1223,2484 1573,4020 350,1536 524,3196 524,4981 0,2709 -337,5044 -999,6991 -649,1960 -1610,3458 -2871,4519 -1261,1049 -2797,1586 -4594,1598 -1486,-13 -2784,-412 -3908,-1186 -1124,-774 -1997,-1798 -2622,-3096 -637,-1298 -949,-2734 -961,-4332l0 -8165zm57753 -17603c-362,-75 -737,-137 -1124,-175 -387,-37 -836,-50 -1348,-50 -1323,0 -2647,312 -3983,924 -1336,599 -2559,1511 -3670,2722 -1124,1211 -2010,2722 -2684,4519l-300 0 -449 -7266 -9513 0c75,1860 150,3858 212,5980 50,2135 87,4482 87,7054l0 28689 11086 0 0 -21573c13,-2372 412,-4332 1174,-5880 774,-1548 1823,-2709 3146,-3471 1323,-762 2834,-1136 4519,-1136 562,0 1074,13 1536,50 462,37 899,100 1311,175l0 -10562zm37304 17229c12,-2310 -237,-4494 -749,-6567 -524,-2085 -1398,-3933 -2634,-5556 -1236,-1610 -2921,-2896 -5056,-3820 -2135,-936 -4819,-1423 -8040,-1436 -2172,12 -4182,200 -6030,549 -1835,350 -3471,787 -4894,1323 -1423,537 -2597,1086 -3533,1648l2097 7191c1373,-836 2934,-1523 4707,-2047 1773,-512 3620,-787 5556,-799 1998,13 3546,337 4644,961 1086,637 1835,1498 2260,2584 412,1099 612,2334 587,3720 -3333,0 -6380,312 -9151,949 -2772,637 -5169,1598 -7203,2896 -2035,1298 -3608,2934 -4719,4906 -1124,1973 -1685,4307 -1698,6979 0,1698 300,3296 874,4794 574,1511 1398,2834 2484,3983 1086,1161 2397,2072 3945,2722 1536,662 3271,999 5206,1011 1561,0 3021,-212 4407,-612 1386,-400 2634,-986 3770,-1748 1136,-774 2110,-1710 2909,-2809l225 0 674 4345 9963 0c-150,-861 -262,-1823 -350,-2884 -87,-1061 -150,-2185 -200,-3371 -37,-1198 -50,-2410 -50,-3633l0 -15281zm-10787 10862c-13,1323 -250,2447 -724,3371 -462,911 -1049,1660 -1773,2222 -724,562 -1486,974 -2272,1223 -799,250 -1523,374 -2197,374 -936,0 -1798,-200 -2597,-599 -787,-387 -1423,-1011 -1898,-1848 -487,-849 -737,-1923 -749,-3246 13,-1511 375,-2747 1061,-3733 699,-974 1623,-1735 2797,-2285 1174,-549 2472,-936 3920,-1161 1436,-212 2921,-325 4432,-312l0 5993zm-145239 3166c-747,318 -2301,829 -3294,1073 -992,245 -2058,429 -3185,563 -1127,135 -2254,208 -3393,208 -3418,0 -6382,-759 -8881,-2242 -2499,-1494 -4435,-3700 -5807,-6615 -1360,-2903 -2058,-6505 -2070,-10768 12,-3418 453,-6382 1323,-8906 858,-2523 2058,-4606 3589,-6260 1544,-1641 3320,-2879 5353,-3687 2033,-808 4214,-1213 6566,-1213 1948,12 3663,196 5157,564 1494,355 2781,772 3883,1274l4641 -7223c-539,-306 -3846,-2216 -4898,-2540 -1055,-325 -2364,-600 -3920,-833 -1544,-233 -3344,-343 -5378,-355 -3014,0 -5892,404 -8636,1201 -2756,796 -5280,1985 -7595,3577 -2315,1593 -4324,3589 -6039,5966 -1715,2389 -3050,5170 -3994,8330 -955,3173 -1433,6738 -1445,10695 0,4202 588,8036 1740,11491 1152,3455 2842,6431 5084,8943 2242,2511 4998,4435 8281,5794 3271,1360 7032,2058 11282,2070 1948,-12 3724,-110 5341,-331 1629,-208 3037,-470 4263,-796 1211,-323 4905,-1334 5628,-1689l-3596 -8290z"/>
  <path fill="#333333" fill-rule="nonzero" d="M122403 100076c-1688,0 -3158,-285 -4409,-844 -1256,-559 -2294,-1343 -3117,-2339 -824,-997 -1439,-2187 -1841,-3560 -402,-1378 -600,-2878 -600,-4506 0,-1688 198,-3219 600,-4582 402,-1368 1017,-2528 1836,-3478 819,-956 1841,-1693 3061,-2212 1221,-524 2660,-783 4317,-783 1246,0 2324,142 3250,432 926,285 1714,671 2375,1144 661,478 1215,1012 1663,1597 447,585 814,1180 1103,1785l-1968 748c-239,-488 -539,-961 -900,-1424 -361,-463 -803,-870 -1327,-1231 -519,-356 -1129,-646 -1815,-865 -692,-219 -1480,-326 -2365,-326 -1317,0 -2456,219 -3412,656 -951,437 -1739,1053 -2360,1856 -620,799 -1078,1765 -1368,2904 -295,1139 -442,2395 -442,3778 0,1378 163,2644 483,3789 325,1149 809,2141 1449,2975 636,834 1444,1480 2410,1943 971,463 2095,692 3377,692 920,0 1749,-132 2487,-402 732,-270 1383,-615 1943,-1048 565,-432 1043,-921 1439,-1454 397,-539 717,-1073 951,-1607l1866 860c-361,686 -799,1363 -1312,2019 -519,661 -1129,1251 -1831,1759 -707,514 -1520,926 -2436,1246 -920,315 -1958,478 -3107,478z"/>
  <path id="1" fill="#333333" fill-rule="nonzero" d="M154940 88827c0,1688 -234,3224 -697,4607 -468,1388 -1139,2568 -2019,3550 -880,976 -1953,1734 -3214,2278 -1261,539 -2690,814 -4287,814 -1698,0 -3183,-285 -4455,-844 -1271,-559 -2334,-1343 -3189,-2339 -854,-997 -1495,-2187 -1922,-3560 -427,-1378 -641,-2878 -641,-4506 0,-1688 224,-3219 671,-4582 442,-1368 1098,-2528 1963,-3478 865,-956 1932,-1693 3199,-2212 1266,-524 2721,-783 4373,-783 1638,0 3092,264 4363,788 1271,529 2339,1271 3209,2238 870,961 1531,2121 1973,3478 448,1353 671,2873 671,4551zm-2294 0c0,-1383 -168,-2639 -503,-3778 -341,-1139 -844,-2105 -1516,-2904 -671,-803 -1500,-1419 -2487,-1856 -987,-437 -2131,-656 -3417,-656 -1322,0 -2482,219 -3473,656 -992,437 -1821,1053 -2487,1856 -666,799 -1165,1765 -1500,2904 -331,1139 -498,2395 -498,3778 0,1378 173,2644 514,3789 346,1149 854,2141 1526,2975 676,834 1505,1480 2492,1943 981,463 2126,692 3427,692 1368,0 2553,-234 3550,-697 1002,-468 1821,-1119 2466,-1953 646,-834 1124,-1831 1439,-2980 310,-1154 468,-2411 468,-3768z"/>
  <path id="12" fill="#333333" fill-rule="nonzero" d="M173130 99761l-5899 -9281 -5182 0 0 9281 -2207 0 0 -21664 7689 0c1170,0 2222,142 3148,417 931,280 1714,676 2354,1195 641,514 1134,1149 1475,1897 346,753 514,1607 514,2573 0,671 -107,1343 -320,2004 -213,656 -544,1266 -987,1815 -447,549 -1027,1017 -1729,1398 -707,386 -1551,651 -2532,798l6301 9566 -2624 0zm-356 -15571c0,-702 -122,-1322 -371,-1861 -249,-534 -610,-987 -1088,-1353 -478,-371 -1048,-646 -1714,-829 -666,-183 -1419,-275 -2263,-275l-5289 0 0 8864 5391 0c926,0 1724,-117 2400,-356 676,-239 1226,-559 1653,-961 427,-402 748,-885 961,-1444 214,-565 320,-1154 320,-1785z"/>
  <path id="123" fill="#333333" fill-rule="nonzero" d="M195180 84504c0,885 -147,1724 -453,2527 -305,799 -758,1500 -1363,2100 -605,600 -1368,1083 -2288,1444 -915,361 -1983,544 -3194,544l-5675 0 0 8640 -2207 0 0 -21664 7689 0c1241,0 2329,158 3260,463 936,310 1719,742 2349,1297 631,554 1104,1231 1414,2019 315,788 468,1668 468,2629zm-2248 15c0,-1470 -458,-2614 -1378,-3427 -921,-814 -2294,-1221 -4119,-1221l-5228 0 0 9489 5345 0c926,0 1724,-122 2400,-366 676,-244 1236,-580 1678,-1017 442,-437 768,-951 981,-1536 214,-585 320,-1226 320,-1922z"/>
  <path id="1234" fill="none" fill-rule="nonzero" stroke="white" stroke-width="269.4" d="M122403 100076c-1688,0 -3158,-285 -4409,-844 -1256,-559 -2294,-1343 -3117,-2339 -824,-997 -1439,-2187 -1841,-3560 -402,-1378 -600,-2878 -600,-4506 0,-1688 198,-3219 600,-4582 402,-1368 1017,-2528 1836,-3478 819,-956 1841,-1693 3061,-2212 1221,-524 2660,-783 4317,-783 1246,0 2324,142 3250,432 926,285 1714,671 2375,1144 661,478 1215,1012 1663,1597 447,585 814,1180 1103,1785l-1968 748c-239,-488 -539,-961 -900,-1424 -361,-463 -803,-870 -1327,-1231 -519,-356 -1129,-646 -1815,-865 -692,-219 -1480,-326 -2365,-326 -1317,0 -2456,219 -3412,656 -951,437 -1739,1053 -2360,1856 -620,799 -1078,1765 -1368,2904 -295,1139 -442,2395 -442,3778 0,1378 163,2644 483,3789 325,1149 809,2141 1449,2975 636,834 1444,1480 2410,1943 971,463 2095,692 3377,692 920,0 1749,-132 2487,-402 732,-270 1383,-615 1943,-1048 565,-432 1043,-921 1439,-1454 397,-539 717,-1073 951,-1607l1866 860c-361,686 -799,1363 -1312,2019 -519,661 -1129,1251 -1831,1759 -707,514 -1520,926 -2436,1246 -920,315 -1958,478 -3107,478z"/>
  <path id="12345" fill="none" fill-rule="nonzero" stroke="white" stroke-width="269.4" d="M154940 88827c0,1688 -234,3224 -697,4607 -468,1388 -1139,2568 -2019,3550 -880,976 -1953,1734 -3214,2278 -1261,539 -2690,814 -4287,814 -1698,0 -3183,-285 -4455,-844 -1271,-559 -2334,-1343 -3189,-2339 -854,-997 -1495,-2187 -1922,-3560 -427,-1378 -641,-2878 -641,-4506 0,-1688 224,-3219 671,-4582 442,-1368 1098,-2528 1963,-3478 865,-956 1932,-1693 3199,-2212 1266,-524 2721,-783 4373,-783 1638,0 3092,264 4363,788 1271,529 2339,1271 3209,2238 870,961 1531,2121 1973,3478 448,1353 671,2873 671,4551zm-2294 0c0,-1383 -168,-2639 -503,-3778 -341,-1139 -844,-2105 -1516,-2904 -671,-803 -1500,-1419 -2487,-1856 -987,-437 -2131,-656 -3417,-656 -1322,0 -2482,219 -3473,656 -992,437 -1821,1053 -2487,1856 -666,799 -1165,1765 -1500,2904 -331,1139 -498,2395 -498,3778 0,1378 173,2644 514,3789 346,1149 854,2141 1526,2975 676,834 1505,1480 2492,1943 981,463 2126,692 3427,692 1368,0 2553,-234 3550,-697 1002,-468 1821,-1119 2466,-1953 646,-834 1124,-1831 1439,-2980 310,-1154 468,-2411 468,-3768z"/>
  <path id="123456" fill="none" fill-rule="nonzero" stroke="white" stroke-width="269.4" d="M173130 99761l-5899 -9281 -5182 0 0 9281 -2207 0 0 -21664 7689 0c1170,0 2222,142 3148,417 931,280 1714,676 2354,1195 641,514 1134,1149 1475,1897 346,753 514,1607 514,2573 0,671 -107,1343 -320,2004 -213,656 -544,1266 -987,1815 -447,549 -1027,1017 -1729,1398 -707,386 -1551,651 -2532,798l6301 9566 -2624 0zm-356 -15571c0,-702 -122,-1322 -371,-1861 -249,-534 -610,-987 -1088,-1353 -478,-371 -1048,-646 -1714,-829 -666,-183 -1419,-275 -2263,-275l-5289 0 0 8864 5391 0c926,0 1724,-117 2400,-356 676,-239 1226,-559 1653,-961 427,-402 748,-885 961,-1444 214,-565 320,-1154 320,-1785z"/>
  <path id="1234567" fill="none" fill-rule="nonzero" stroke="white" stroke-width="269.4" d="M195180 84504c0,885 -147,1724 -453,2527 -305,799 -758,1500 -1363,2100 -605,600 -1368,1083 -2288,1444 -915,361 -1983,544 -3194,544l-5675 0 0 8640 -2207 0 0 -21664 7689 0c1241,0 2329,158 3260,463 936,310 1719,742 2349,1297 631,554 1104,1231 1414,2019 315,788 468,1668 468,2629zm-2248 15c0,-1470 -458,-2614 -1378,-3427 -921,-814 -2294,-1221 -4119,-1221l-5228 0 0 9489 5345 0c926,0 1724,-122 2400,-366 676,-244 1236,-580 1678,-1017 442,-437 768,-951 981,-1536 214,-585 320,-1226 320,-1922z"/>
  <path fill="url(#id1)" fill-rule="nonzero" stroke="white" stroke-width="269.4" d="M65718 118419c-63939,-15272 -27342,33362 0,0zm7062 -44663c-3321,13544 12216,18800 12216,37454 0,90 46261,19941 49471,11791 2689,-6826 -45266,-12199 -47428,-35017 13419,21877 65172,19113 57855,38464 -4514,11939 -25101,11379 -63195,-2992 -56932,64209 -116234,-38350 -14802,-16881 0,-19332 -47212,-56246 -22269,-87708 3055,-3618 6070,-6150 9084,-7557 1436,-8983 14102,-11877 19523,-11042 2345,361 2185,6626 816,10359 20003,22558 6740,30449 -1272,63129z"/>
 </g>
</svg>
